<svg xmlns="http://www.w3.org/2000/svg" xmlns:xlink="http://www.w3.org/1999/xlink" width="315" height="55" viewBox="0 0 315 55">
  <metadata><?xpacket begin="﻿" id="W5M0MpCehiHzreSzNTczkc9d"?>
<x:xmpmeta xmlns:x="adobe:ns:meta/" x:xmptk="Adobe XMP Core 5.6-c138 79.159824, 2016/09/14-01:09:01        ">
   <rdf:RDF xmlns:rdf="http://www.w3.org/1999/02/22-rdf-syntax-ns#">
      <rdf:Description rdf:about=""/>
   </rdf:RDF>
</x:xmpmeta>
                                                                                                    
                                                                                                    
                                                                                                    
                                                                                                    
                                                                                                    
                                                                                                    
                                                                                                    
                                                                                                    
                                                                                                    
                                                                                                    
                                                                                                    
                                                                                                    
                                                                                                    
                                                                                                    
                                                                                                    
                                                                                                    
                                                                                                    
                                                                                                    
                                                                                                    
                                                                                                    
                           
<?xpacket end="w"?></metadata>
<defs>
    <style>
      .cls-1 {
        fill: #fff;
        filter: url(#filter);
      }

      .cls-1, .cls-2 {
        fill-rule: evenodd;
      }

      .cls-1, .cls-2, .cls-3 {
        opacity: 0.99;
      }

      .cls-2 {
        fill: #9f0a3a;
        filter: url(#filter-2);
      }

      .cls-3 {
        fill: #0385d0;
        filter: url(#filter-3);
      }
    </style>
    <filter id="filter" x="84" y="0" width="229" height="54" filterUnits="userSpaceOnUse">
      <feOffset result="offset" dx="2" in="SourceAlpha"/>
      <feGaussianBlur result="blur" stdDeviation="2.449"/>
      <feFlood result="flood" flood-color="#231f20" flood-opacity="0.41"/>
      <feComposite result="composite" operator="in" in2="blur"/>
      <feBlend result="blend" in="SourceGraphic"/>
    </filter>
    <filter id="filter-2" x="1" y="1" width="72" height="53" filterUnits="userSpaceOnUse">
      <feOffset result="offset" dx="2" in="SourceAlpha"/>
      <feGaussianBlur result="blur" stdDeviation="2.449"/>
      <feFlood result="flood" flood-color="#231f20" flood-opacity="0.41"/>
      <feComposite result="composite" operator="in" in2="blur"/>
      <feBlend result="blend" in="SourceGraphic"/>
    </filter>
    <filter id="filter-3" x="1" y="10" width="35" height="35" filterUnits="userSpaceOnUse">
      <feOffset result="offset" dx="2" in="SourceAlpha"/>
      <feGaussianBlur result="blur" stdDeviation="2.449"/>
      <feFlood result="flood" flood-color="#231f20" flood-opacity="0.41"/>
      <feComposite result="composite" operator="in" in2="blur"/>
      <feBlend result="blend" in="SourceGraphic"/>
    </filter>
  </defs>
  <path id="Header_-_big_text_copy_2" data-name="Header - big text copy 2" class="cls-1" d="M103.267,32.708a17.607,17.607,0,0,0,8.038-1.678,11.653,11.653,0,0,0,4.988-4.606,13.187,13.187,0,0,0,1.681-6.682,12.556,12.556,0,0,0-3.762-9.582q-3.762-3.553-10.945-3.554H87.476V46.811h9.748v-14.1h6.043Zm-1.084-7.791H97.224V14.453h4.959q5.871,0,5.872,5.289,0,5.175-5.872,5.175h0ZM138.5,5.98a20.432,20.432,0,0,0-10.289,2.644,19.482,19.482,0,0,0-7.354,7.336,20.822,20.822,0,0,0-2.708,10.606A20.974,20.974,0,0,0,120.853,37.2a19.419,19.419,0,0,0,7.354,7.365,21.341,21.341,0,0,0,20.579,0A19.433,19.433,0,0,0,156.14,37.2a20.984,20.984,0,0,0,2.708-10.634,21.016,21.016,0,0,0-2.679-10.606,19.3,19.3,0,0,0-7.326-7.336A20.549,20.549,0,0,0,138.5,5.98h0Zm0,9.042a9.743,9.743,0,0,1,7.611,3.128,12.094,12.094,0,0,1,2.822,8.417,12.017,12.017,0,0,1-2.851,8.417,10.787,10.787,0,0,1-15.192,0,12.093,12.093,0,0,1-2.822-8.417q0-5.345,2.822-8.445a9.785,9.785,0,0,1,7.61-3.1h0Zm53.871,31.79L182.79,31a12.388,12.388,0,0,0,7.04-4.208,11.657,11.657,0,0,0,2.423-7.45,12.93,12.93,0,0,0-1.653-6.568,11.42,11.42,0,0,0-4.96-4.521,18.009,18.009,0,0,0-8.095-1.649H160.9V46.811h9.749V31.627h2.223l8.722,15.184h10.774ZM170.648,14.794h6.042a5.861,5.861,0,0,1,4.247,1.365,5.007,5.007,0,0,1,1.4,3.753,4.931,4.931,0,0,1-1.368,3.782,6.1,6.1,0,0,1-4.276,1.28h-6.042V14.794Zm20.464-8.189v7.734h10.832V46.811h9.805V14.339h10.945V6.605H191.112Zm32.038,0v23.2a20.069,20.069,0,0,0,2.109,9.611,13.736,13.736,0,0,0,5.815,5.858,18.214,18.214,0,0,0,8.551,1.934,18.865,18.865,0,0,0,8.693-1.962,14.435,14.435,0,0,0,6.071-5.857,19.06,19.06,0,0,0,2.224-9.582V6.605h-9.749v23.2a9.125,9.125,0,0,1-1.8,6.085,7.518,7.518,0,0,1-10.433,0,9.125,9.125,0,0,1-1.795-6.085V6.605H223.15Zm70,0.284L282.493,34.7,271.605,6.889H259.691V46.811h9.748V21.789l8.722,25.022H286.6l8.665-24.965V46.811h9.748V6.889H293.154Z"/>
  <path id="Ellipse_3_copy_6" data-name="Ellipse 3 copy 6" class="cls-2" d="M25.615,37.548A20.89,20.89,0,1,1,54.168,45.18,20.824,20.824,0,0,1,25.615,37.548Zm9.874-5.687a9.5,9.5,0,1,1,12.979,3.47A9.465,9.465,0,0,1,35.489,31.861ZM6.494,32.945a11.395,11.395,0,1,1,15.575,4.164A11.358,11.358,0,0,1,6.494,32.945Z"/>
  <circle id="Ellipse_3_copy_6-2" data-name="Ellipse 3 copy 6" class="cls-3" cx="16.375" cy="27.25" r="11.406"/>
</svg>
